<?xml version="1.0" encoding="UTF-8" standalone="no"?>
<!-- Created with Inkscape (http://www.inkscape.org/) -->

<svg
   xmlns:dc="http://purl.org/dc/elements/1.1/"
   xmlns:cc="http://creativecommons.org/ns#"
   xmlns:rdf="http://www.w3.org/1999/02/22-rdf-syntax-ns#"
   xmlns:svg="http://www.w3.org/2000/svg"
   xmlns="http://www.w3.org/2000/svg"
   xmlns:sodipodi="http://sodipodi.sourceforge.net/DTD/sodipodi-0.dtd"
   xmlns:inkscape="http://www.inkscape.org/namespaces/inkscape"
   width="81mm"
   height="81.328911mm"
   viewBox="0 0 81 81.328911"
   version="1.1"
   id="svg8"
   inkscape:version="0.92.3 (2405546, 2018-03-11)"
   sodipodi:docname="fitted_logo.svg">
  <defs
     id="defs2" />
  <sodipodi:namedview
     id="base"
     pagecolor="#ffffff"
     bordercolor="#666666"
     borderopacity="1.0"
     inkscape:pageopacity="0.0"
     inkscape:pageshadow="2"
     inkscape:zoom="0.69892032"
     inkscape:cx="-235.89763"
     inkscape:cy="119.63888"
     inkscape:document-units="mm"
     inkscape:current-layer="layer1"
     showgrid="false"
     inkscape:window-width="1842"
     inkscape:window-height="963"
     inkscape:window-x="-8"
     inkscape:window-y="-8"
     inkscape:window-maximized="1"
     inkscape:snap-intersection-paths="true"
     inkscape:snap-midpoints="true"
     inkscape:snap-smooth-nodes="true"
     inkscape:snap-bbox="false"
     inkscape:snap-bbox-edge-midpoints="true"
     inkscape:bbox-paths="true"
     fit-margin-top="0"
     fit-margin-left="0"
     fit-margin-right="0"
     fit-margin-bottom="0" />
  <metadata
     id="metadata5">
    <rdf:RDF>
      <cc:Work
         rdf:about="">
        <dc:format>image/svg+xml</dc:format>
        <dc:type
           rdf:resource="http://purl.org/dc/dcmitype/StillImage" />
        <dc:title></dc:title>
      </cc:Work>
    </rdf:RDF>
  </metadata>
  <g
     inkscape:label="Layer 1"
     inkscape:groupmode="layer"
     id="layer1"
     style="display:inline"
     transform="translate(-61.364578,-42.981247)">
    <circle
       id="path3721"
       cx="101.86458"
       cy="83.481247"
       style="opacity:1;vector-effect:none;fill:#829f82;fill-opacity:1;stroke:#000000;stroke-width:1;stroke-linecap:butt;stroke-linejoin:miter;stroke-miterlimit:4;stroke-dasharray:none;stroke-dashoffset:0;stroke-opacity:1"
       r="40"
       inkscape:export-xdpi="96"
       inkscape:export-ydpi="96" />
    <path
       style="opacity:1;vector-effect:none;fill:none;fill-opacity:1;stroke:#000000;stroke-width:1;stroke-linecap:butt;stroke-linejoin:miter;stroke-miterlimit:4;stroke-dasharray:none;stroke-dashoffset:0;stroke-opacity:1"
       d="M 101.86458,43.481247 V 123.48125"
       id="path3741"
       inkscape:connector-curvature="0"
       sodipodi:nodetypes="cc"
       inkscape:export-xdpi="96"
       inkscape:export-ydpi="96" />
    <path
       style="opacity:1;vector-effect:none;fill:none;fill-opacity:1;stroke:#000000;stroke-width:1;stroke-linecap:butt;stroke-linejoin:miter;stroke-miterlimit:4;stroke-dasharray:none;stroke-dashoffset:0;stroke-opacity:1"
       d="M 61.864578,83.481245 H 141.86458"
       id="path4550"
       inkscape:connector-curvature="0"
       inkscape:export-xdpi="96"
       inkscape:export-ydpi="96" />
    <path
       style="opacity:1;vector-effect:none;fill:none;fill-opacity:1;stroke:#000000;stroke-width:1;stroke-linecap:butt;stroke-linejoin:miter;stroke-miterlimit:4;stroke-dasharray:none;stroke-dashoffset:0;stroke-opacity:1"
       d="m 73.58031,55.196973 56.56854,56.568547"
       id="path4554"
       inkscape:connector-curvature="0"
       sodipodi:nodetypes="cc"
       inkscape:export-xdpi="96"
       inkscape:export-ydpi="96" />
    <path
       style="opacity:1;vector-effect:none;fill:none;fill-opacity:1;stroke:#000000;stroke-width:1;stroke-linecap:butt;stroke-linejoin:miter;stroke-miterlimit:4;stroke-dasharray:none;stroke-dashoffset:0;stroke-opacity:1"
       d="M 73.580308,111.76552 130.14884,55.196969"
       id="path4556"
       inkscape:connector-curvature="0"
       sodipodi:nodetypes="cc"
       inkscape:export-xdpi="96"
       inkscape:export-ydpi="96" />
    <path
       style="display:inline;opacity:1;vector-effect:none;fill:none;fill-opacity:1;stroke:#000000;stroke-width:1;stroke-linecap:butt;stroke-linejoin:miter;stroke-miterlimit:4;stroke-dasharray:none;stroke-dashoffset:0;stroke-opacity:1"
       d="M 91.159251,109.3262 112.5699,57.636294"
       id="path4556-1"
       inkscape:connector-curvature="0"
       inkscape:export-xdpi="96"
       inkscape:export-ydpi="96" />
    <path
       style="display:inline;opacity:1;vector-effect:none;fill:none;fill-opacity:1;stroke:#000000;stroke-width:1;stroke-linecap:butt;stroke-linejoin:miter;stroke-miterlimit:4;stroke-dasharray:none;stroke-dashoffset:0;stroke-opacity:1"
       d="M 76.019632,94.18657 127.70953,72.775909"
       id="path4556-3"
       inkscape:connector-curvature="0"
       inkscape:export-xdpi="96"
       inkscape:export-ydpi="96" />
    <path
       style="display:inline;opacity:1;vector-effect:none;fill:none;fill-opacity:1;stroke:#000000;stroke-width:1;stroke-linecap:butt;stroke-linejoin:miter;stroke-miterlimit:4;stroke-dasharray:none;stroke-dashoffset:0;stroke-opacity:1"
       d="m 76.01962,72.775916 51.6899,21.410656"
       id="path4554-5"
       inkscape:connector-curvature="0"
       inkscape:export-xdpi="96"
       inkscape:export-ydpi="96" />
    <path
       style="display:inline;opacity:1;vector-effect:none;fill:none;fill-opacity:1;stroke:#000000;stroke-width:1;stroke-linecap:butt;stroke-linejoin:miter;stroke-miterlimit:4;stroke-dasharray:none;stroke-dashoffset:0;stroke-opacity:1"
       d="M 91.159249,57.636292 112.5699,109.32619"
       id="path4554-7"
       inkscape:connector-curvature="0"
       inkscape:export-xdpi="96"
       inkscape:export-ydpi="96" />
    <path
       style="opacity:1;vector-effect:none;fill:none;fill-opacity:1;stroke:#000000;stroke-width:1;stroke-linecap:butt;stroke-linejoin:miter;stroke-miterlimit:4;stroke-dasharray:none;stroke-dashoffset:0;stroke-opacity:1"
       d="m 112.5699,57.636293 17.57894,-2.439324"
       id="path4602"
       inkscape:connector-curvature="0"
       inkscape:export-xdpi="96"
       inkscape:export-ydpi="96" />
    <path
       style="opacity:1;vector-effect:none;fill:none;fill-opacity:1;stroke:#000000;stroke-width:1;stroke-linecap:butt;stroke-linejoin:miter;stroke-miterlimit:4;stroke-dasharray:none;stroke-dashoffset:0;stroke-opacity:1"
       d="m 130.14884,55.196969 -2.43931,17.578938 14.15505,10.70534"
       id="path4604"
       inkscape:connector-curvature="0"
       inkscape:export-xdpi="96"
       inkscape:export-ydpi="96" />
    <path
       style="opacity:1;vector-effect:none;fill:none;fill-opacity:1;stroke:#000000;stroke-width:1;stroke-linecap:butt;stroke-linejoin:miter;stroke-miterlimit:4;stroke-dasharray:none;stroke-dashoffset:0;stroke-opacity:1"
       d="M 127.70952,94.18657 141.86458,83.481245"
       id="path4606"
       inkscape:connector-curvature="0"
       inkscape:export-xdpi="96"
       inkscape:export-ydpi="96" />
    <path
       style="opacity:1;vector-effect:none;fill:none;fill-opacity:1;stroke:#000000;stroke-width:1;stroke-linecap:butt;stroke-linejoin:miter;stroke-miterlimit:4;stroke-dasharray:none;stroke-dashoffset:0;stroke-opacity:1"
       d="M 112.5699,57.636293 101.86458,43.919505"
       id="path4618"
       inkscape:connector-curvature="0"
       inkscape:export-xdpi="96"
       inkscape:export-ydpi="96" />
    <path
       style="opacity:1;vector-effect:none;fill:none;fill-opacity:1;stroke:#000000;stroke-width:1;stroke-linecap:butt;stroke-linejoin:miter;stroke-miterlimit:4;stroke-dasharray:none;stroke-dashoffset:0;stroke-opacity:1"
       d="M 101.86458,43.919505 91.159247,57.63629 73.580309,55.196973 76.01962,72.775916"
       id="path4620"
       inkscape:connector-curvature="0"
       inkscape:export-xdpi="96"
       inkscape:export-ydpi="96" />
    <path
       style="opacity:1;vector-effect:none;fill:none;fill-opacity:1;stroke:#000000;stroke-width:1;stroke-linecap:butt;stroke-linejoin:miter;stroke-miterlimit:4;stroke-dasharray:none;stroke-dashoffset:0;stroke-opacity:1"
       d="M 76.019619,72.775915 62.302842,83.481245"
       id="path4622"
       inkscape:connector-curvature="0"
       inkscape:export-xdpi="96"
       inkscape:export-ydpi="96" />
    <path
       style="opacity:1;vector-effect:none;fill:none;fill-opacity:1;stroke:#000000;stroke-width:1;stroke-linecap:butt;stroke-linejoin:miter;stroke-miterlimit:4;stroke-dasharray:none;stroke-dashoffset:0;stroke-opacity:1"
       d="M 61.864578,83.481245 76.01963,94.18657"
       id="path4624"
       inkscape:connector-curvature="0"
       inkscape:export-xdpi="96"
       inkscape:export-ydpi="96" />
    <path
       style="opacity:1;vector-effect:none;fill:none;fill-opacity:1;stroke:#000000;stroke-width:1;stroke-linecap:butt;stroke-linejoin:miter;stroke-miterlimit:4;stroke-dasharray:none;stroke-dashoffset:0;stroke-opacity:1"
       d="m 76.01963,94.18657 -2.439326,17.57895"
       id="path4626"
       inkscape:connector-curvature="0"
       inkscape:export-xdpi="96"
       inkscape:export-ydpi="96" />
    <path
       style="opacity:1;vector-effect:none;fill:none;fill-opacity:1;stroke:#000000;stroke-width:1;stroke-linecap:butt;stroke-linejoin:miter;stroke-miterlimit:4;stroke-dasharray:none;stroke-dashoffset:0;stroke-opacity:1"
       d="m 73.580304,111.76552 17.578945,-2.43932 10.705331,14.15505 10.70532,-14.15506 17.57895,2.43933"
       id="path4628"
       inkscape:connector-curvature="0"
       inkscape:export-xdpi="96"
       inkscape:export-ydpi="96" />
    <path
       style="opacity:1;vector-effect:none;fill:none;fill-opacity:1;stroke:#000000;stroke-width:1;stroke-linecap:butt;stroke-linejoin:miter;stroke-miterlimit:4;stroke-dasharray:none;stroke-dashoffset:0;stroke-opacity:1"
       d="M 130.14885,111.76552 127.70952,94.18657"
       id="path4630"
       inkscape:connector-curvature="0"
       inkscape:export-xdpi="96"
       inkscape:export-ydpi="96" />
    <path
       style="opacity:1;vector-effect:none;fill:none;fill-opacity:1;stroke:#fcfcfc;stroke-width:2.6725297;stroke-linecap:butt;stroke-linejoin:miter;stroke-miterlimit:4;stroke-dasharray:none;stroke-dashoffset:0;stroke-opacity:1"
       d="m 442.10623,261.89724 c 25.45676,-25.5044 46.34773,-46.30489 46.42438,-46.22331 0.17991,0.19147 -7.67509,57.34367 -7.92638,57.6716 -0.28913,0.37731 -81.75048,34.14857 -83.36881,34.56203 -0.77782,0.19873 19.41405,-20.50592 44.87081,-46.01032 z"
       id="path4669"
       inkscape:connector-curvature="0"
       transform="scale(0.26458333)"
       inkscape:export-xdpi="96"
       inkscape:export-ydpi="96" />
    <path
       style="opacity:1;vector-effect:none;fill:#555555;fill-opacity:1;stroke:#000000;stroke-width:2.7038331;stroke-linecap:butt;stroke-linejoin:miter;stroke-miterlimit:4;stroke-dasharray:none;stroke-dashoffset:0;stroke-opacity:1"
       d="m 387.2876,238.21253 c 0,-35.67407 0.13734,-64.86195 0.3052,-64.86195 0.70471,0 35.09161,44.66721 34.93539,45.37967 -0.27008,1.23174 -34.45778,83.56142 -34.87061,83.97425 -0.20349,0.20349 -0.36998,-28.8179 -0.36998,-64.49197 z"
       id="path10803"
       inkscape:connector-curvature="0"
       transform="scale(0.26458333)"
       inkscape:export-xdpi="96"
       inkscape:export-ydpi="96" />
    <path
       style="opacity:1;vector-effect:none;fill:#555555;fill-opacity:1;stroke:#000000;stroke-width:2.7038331;stroke-linecap:butt;stroke-linejoin:miter;stroke-miterlimit:4;stroke-dasharray:none;stroke-dashoffset:0;stroke-opacity:1"
       d="m 382.55553,303.7615 c -0.42735,-1.09922 -8.55917,-20.76562 -18.07071,-43.70314 -14.94678,-36.04484 -17.17,-41.88003 -16.38212,-42.99754 0.50137,-0.71114 8.47682,-10.99334 17.72323,-22.84933 l 16.81164,-21.55635 0.18261,65.09044 0.18261,65.09043 h 2.19486 c 1.70386,0 2.14175,0.28006 1.95744,1.25193 -0.13636,0.71905 -1.00043,1.34136 -2.02999,1.46203 -1.39543,0.16355 -1.96471,-0.23268 -2.56957,-1.78847 z"
       id="path10805"
       inkscape:connector-curvature="0"
       transform="scale(0.26458333)"
       inkscape:export-xdpi="96"
       inkscape:export-ydpi="96" />
    <path
       style="opacity:1;vector-effect:none;fill:#555555;fill-opacity:1;stroke:#000000;stroke-width:2.7038331;stroke-linecap:butt;stroke-linejoin:miter;stroke-miterlimit:4;stroke-dasharray:none;stroke-dashoffset:0;stroke-opacity:1"
       d="m 364.87101,436.34735 -17.76656,-23.48032 18.12668,-43.74813 c 15.13081,-36.5177 18.37087,-43.7831 19.60413,-43.95973 1.03453,-0.14816 1.75127,0.38799 2.39085,1.78847 1.4643,3.20634 34.97347,84.18003 35.23555,85.14543 0.13074,0.48158 -7.64946,11.34824 -17.28933,24.14812 l -17.52704,23.27252 -0.18259,-65.46184 -0.18259,-65.46185 h -2.13868 -2.13868 l -0.18259,65.61882 -0.18259,65.61883 z"
       id="path10807"
       inkscape:connector-curvature="0"
       transform="scale(0.26458333)"
       inkscape:export-xdpi="96"
       inkscape:export-ydpi="96" />
    <path
       style="opacity:1;vector-effect:none;fill:#555555;fill-opacity:1;stroke:#000000;stroke-width:2.7038331;stroke-linecap:butt;stroke-linejoin:miter;stroke-miterlimit:4;stroke-dasharray:none;stroke-dashoffset:0;stroke-opacity:1"
       d="m 439.73419,335.79141 -42.34246,-17.57453 32.86356,-0.18599 c 18.07496,-0.1023 47.67158,-0.1023 65.77028,0 l 32.90671,0.18599 -22.1876,16.7525 c -12.20318,9.21388 -22.7457,17.12242 -23.42781,17.57453 -1.02312,0.67814 -8.65185,-2.25422 -43.58268,-16.7525 z"
       id="path10809"
       inkscape:connector-curvature="0"
       transform="scale(0.26458333)"
       inkscape:export-xdpi="96"
       inkscape:export-ydpi="96" />
    <path
       style="opacity:1;vector-effect:none;fill:#555555;fill-opacity:1;stroke:#000000;stroke-width:2.7038331;stroke-linecap:butt;stroke-linejoin:miter;stroke-miterlimit:4;stroke-dasharray:none;stroke-dashoffset:0;stroke-opacity:1"
       d="m 397.30305,312.93456 c 0.59019,-0.32383 19.96425,-8.39683 43.05345,-17.94 l 41.98038,-17.35123 15.60845,11.77478 c 8.58465,6.47613 19.26906,14.55893 23.74312,17.96176 l 8.13466,6.18698 -66.79657,-0.0217 c -36.73812,-0.012 -66.31369,-0.28671 -65.72349,-0.61054 z"
       id="path10811"
       inkscape:connector-curvature="0"
       transform="scale(0.26458333)"
       inkscape:export-xdpi="96"
       inkscape:export-ydpi="96" />
    <path
       style="opacity:1;vector-effect:none;fill:#555555;fill-opacity:1;stroke:#000000;stroke-width:2.7038331;stroke-linecap:butt;stroke-linejoin:miter;stroke-miterlimit:4;stroke-dasharray:none;stroke-dashoffset:0;stroke-opacity:1"
       d="m 263.95665,335.52552 -22.81877,-17.30864 32.6013,-0.18603 c 17.93071,-0.10231 47.51467,-0.10231 65.74212,0 l 33.14082,0.18603 -41.85026,17.3499 c -23.01765,9.54244 -42.33316,17.33133 -42.92335,17.30864 -0.5902,-0.0227 -11.34153,-7.83015 -23.89186,-17.3499 z"
       id="path10813"
       inkscape:connector-curvature="0"
       transform="scale(0.26458333)"
       inkscape:export-xdpi="96"
       inkscape:export-ydpi="96" />
    <path
       style="opacity:1;vector-effect:none;fill:#555555;fill-opacity:1;stroke:#000000;stroke-width:2.7038331;stroke-linecap:butt;stroke-linejoin:miter;stroke-miterlimit:4;stroke-dasharray:none;stroke-dashoffset:0;stroke-opacity:1"
       d="m 242.45707,312.94754 c 0.50643,-0.4615 38.90519,-30.35145 44.47085,-34.61652 0.58384,-0.44741 14.16366,4.84368 41.49257,16.1667 22.34357,9.25748 41.75142,17.32258 43.12855,17.92245 2.26757,0.98775 -3.73752,1.09332 -63.63387,1.11868 -37.2961,0.0158 -65.84135,-0.24207 -65.4581,-0.59131 z"
       id="path10815"
       inkscape:connector-curvature="0"
       transform="scale(0.26458333)"
       inkscape:export-xdpi="96"
       inkscape:export-ydpi="96" />
    <path
       style="opacity:1;vector-effect:none;fill:#c78989;fill-opacity:1;stroke:#c78989;stroke-width:1.36818898;stroke-linecap:butt;stroke-linejoin:miter;stroke-miterlimit:4;stroke-dasharray:none;stroke-dashoffset:0;stroke-opacity:1"
       d="m 391.58437,305.64278 c 0,-0.58614 34.95239,-85.00547 35.39548,-85.48952 0.36391,-0.39755 57.56537,-8.55247 58.3152,-8.3137 0.20909,0.0666 -20.79028,21.29057 -46.66526,47.16443 -25.87498,25.87386 -47.04542,46.86132 -47.04542,46.63879 z"
       id="path11419"
       inkscape:connector-curvature="0"
       transform="scale(0.26458333)"
       inkscape:export-xdpi="96"
       inkscape:export-ydpi="96" />
    <path
       style="opacity:1;vector-effect:none;fill:#c78989;fill-opacity:1;stroke:#d27e7e;stroke-width:0.69210732;stroke-linecap:butt;stroke-linejoin:miter;stroke-miterlimit:4;stroke-dasharray:none;stroke-dashoffset:0;stroke-opacity:1"
       d="m 396.2196,307.18759 c 1.69548,-2.39648 87.98311,-88.90428 88.67802,-88.90428 0.32273,0 1.24104,-0.68291 2.0407,-1.51757 1.88396,-1.96643 2.46416,-1.91848 2.07213,0.17123 -0.17425,0.92884 -0.42219,3.57728 -0.55098,5.88543 -0.23394,4.19284 -3.89351,31.7174 -5.90666,44.42559 -0.98928,6.24487 -1.1599,6.77447 -2.38682,7.40828 -1.54386,0.79755 -36.06967,15.21009 -63.22145,26.39132 -10.39625,4.28122 -19.57407,7.78403 -20.39517,7.78403 h -1.4929 z"
       id="path11430"
       inkscape:connector-curvature="0"
       transform="scale(0.26458333)"
       inkscape:export-xdpi="96"
       inkscape:export-ydpi="96" />
    <path
       style="opacity:1;vector-effect:none;fill:#c78989;fill-opacity:1;stroke:#d27e7e;stroke-width:0.69210732;stroke-linecap:butt;stroke-linejoin:miter;stroke-miterlimit:4;stroke-dasharray:none;stroke-dashoffset:0;stroke-opacity:1"
       d="m 441.412,369.02931 c -25.87386,-25.87498 -46.89076,-47.04542 -46.70422,-47.04542 0.18654,0 19.53509,7.9483 42.99678,17.66287 36.43831,15.0877 42.71367,17.83496 43.04205,18.84316 0.48924,1.50213 8.058,56.53714 7.85789,57.13745 -0.082,0.24605 -21.31864,-20.72308 -47.1925,-46.59806 z"
       id="path11432"
       inkscape:connector-curvature="0"
       transform="scale(0.26458333)"
       inkscape:export-xdpi="96"
       inkscape:export-ydpi="96" />
    <path
       style="opacity:1;vector-effect:none;fill:#c78989;fill-opacity:1;stroke:#d27e7e;stroke-width:0.69210732;stroke-linecap:butt;stroke-linejoin:miter;stroke-miterlimit:4;stroke-dasharray:none;stroke-dashoffset:0;stroke-opacity:1"
       d="m 454.5635,415.16697 c -15.02394,-2.10159 -27.38953,-3.87404 -27.4791,-3.93878 -0.29567,-0.21371 -35.4942,-85.3719 -35.3475,-85.5186 0.079,-0.079 21.18968,20.90345 46.91269,46.62759 44.2657,44.26765 46.6744,46.76794 44.99964,46.71101 -0.97321,-0.0331 -14.06179,-1.77963 -29.08573,-3.88122 z"
       id="path11434"
       inkscape:connector-curvature="0"
       transform="scale(0.26458333)"
       inkscape:export-xdpi="96"
       inkscape:export-ydpi="96" />
    <path
       style="opacity:1;vector-effect:none;fill:#c78989;fill-opacity:1;stroke:#d27e7e;stroke-width:0.69210732;stroke-linecap:butt;stroke-linejoin:miter;stroke-miterlimit:4;stroke-dasharray:none;stroke-dashoffset:0;stroke-opacity:1"
       d="m 331.36688,372.33718 c 25.72301,-25.72414 46.83272,-46.70755 46.91046,-46.62981 0.14114,0.14114 -35.06563,85.32008 -35.35525,85.53818 -0.22704,0.17098 -56.68208,7.89778 -57.56657,7.87894 -0.41676,-0.009 20.28835,-21.06317 46.01136,-46.78731 z"
       id="path11436"
       inkscape:connector-curvature="0"
       transform="scale(0.26458333)"
       inkscape:export-xdpi="96"
       inkscape:export-ydpi="96" />
    <path
       style="opacity:1;vector-effect:none;fill:#c78989;fill-opacity:1;stroke:#d27e7e;stroke-width:0.69210732;stroke-linecap:butt;stroke-linejoin:miter;stroke-miterlimit:4;stroke-dasharray:none;stroke-dashoffset:0;stroke-opacity:1"
       d="m 281.3059,415.56633 c -0.004,-1.5304 7.58495,-55.93444 7.96033,-57.07001 0.33004,-0.99842 6.77017,-3.81628 43.08304,-18.85089 23.48224,-9.72235 42.76509,-17.6069 42.85077,-17.52122 0.0857,0.0857 -21.00506,21.31571 -46.8683,47.17784 -25.86325,25.86212 -47.02488,46.68105 -47.02584,46.26428 z"
       id="path11438"
       inkscape:connector-curvature="0"
       transform="scale(0.26458333)"
       inkscape:export-xdpi="96"
       inkscape:export-ydpi="96" />
    <path
       style="opacity:1;vector-effect:none;fill:#c78989;fill-opacity:1;stroke:#d27e7e;stroke-width:0.69210732;stroke-linecap:butt;stroke-linejoin:miter;stroke-miterlimit:4;stroke-dasharray:none;stroke-dashoffset:0;stroke-opacity:1"
       d="m 331.8933,291.25963 c -23.23146,-9.62817 -42.33426,-17.58091 -42.45067,-17.67274 -0.29571,-0.23329 -8.16222,-56.92835 -8.0078,-57.7134 0.0692,-0.35162 21.18156,20.42011 46.91645,46.15941 25.73488,25.7393 46.56353,46.78383 46.28587,46.76562 -0.27766,-0.0182 -19.51239,-7.91071 -42.74385,-17.53889 z"
       id="path11440"
       inkscape:connector-curvature="0"
       transform="scale(0.26458333)"
       inkscape:export-xdpi="96"
       inkscape:export-ydpi="96" />
    <path
       style="opacity:1;vector-effect:none;fill:#c78989;fill-opacity:1;stroke:#d27e7e;stroke-width:0.69210732;stroke-linecap:butt;stroke-linejoin:miter;stroke-miterlimit:4;stroke-dasharray:none;stroke-dashoffset:0;stroke-opacity:1"
       d="m 331.11395,258.73126 c -25.86213,-25.86325 -46.79488,-47.02308 -46.51722,-47.02184 2.06501,0.009 58.1153,8.09326 58.41739,8.42547 0.55856,0.61425 35.51829,85.22404 35.30264,85.43969 -0.0994,0.0994 -21.34069,-20.98007 -47.20281,-46.84332 z"
       id="path11442"
       inkscape:connector-curvature="0"
       transform="scale(0.26458333)"
       inkscape:export-xdpi="96"
       inkscape:export-ydpi="96" />
    <circle
       style="opacity:1;vector-effect:none;fill:#505050;fill-opacity:1;stroke:#000000;stroke-width:0.75;stroke-linecap:butt;stroke-linejoin:miter;stroke-miterlimit:4;stroke-dasharray:none;stroke-dashoffset:0;stroke-opacity:1"
       id="path11444"
       cx="101.86458"
       cy="83.026939"
       r="3"
       inkscape:export-xdpi="96"
       inkscape:export-ydpi="96" />
  </g>
</svg>
